<?xml version="1.0" standalone="no"?>
<!DOCTYPE svg PUBLIC "-//W3C//DTD SVG 20010904//EN"
 "http://www.w3.org/TR/2001/REC-SVG-20010904/DTD/svg10.dtd">
<svg version="1.0" xmlns="http://www.w3.org/2000/svg"
 width="828.000000pt" height="828.000000pt" viewBox="0 0 828.000000 828.000000"
 preserveAspectRatio="xMidYMid meet">
<metadata>
Created by potrace 1.14, written by Peter Selinger 2001-2017
</metadata>
<g transform="translate(0.000000,828.000000) scale(0.100000,-0.100000)"
fill="#000000" stroke="none">
<path d="M1885 8265 c-273 -29 -495 -81 -710 -166 -276 -109 -482 -250 -663
-452 -266 -297 -434 -726 -486 -1245 -14 -132 -16 -425 -16 -2262 0 -1837 2
-2130 16 -2262 52 -519 220 -948 486 -1245 181 -202 387 -343 663 -452 221
-88 433 -137 720 -166 208 -22 4292 -22 4500 0 287 29 499 78 720 166 276 109
482 250 663 452 266 297 434 726 486 1245 14 132 16 425 16 2262 0 1837 -2
2130 -16 2262 -52 519 -220 948 -486 1245 -181 202 -387 343 -663 452 -221 88
-433 137 -720 166 -193 20 -4321 20 -4510 0z m3234 -2025 c113 -12 228 -48
356 -112 101 -50 170 -102 266 -200 126 -128 191 -243 235 -415 22 -87 59
-321 52 -328 -2 -2 -118 0 -258 4 l-255 6 -28 84 c-16 47 -44 108 -63 137 -73
111 -244 226 -374 254 -40 8 -315 10 -1020 8 -1086 -4 -1011 2 -1132 -82 -70
-47 -97 -87 -128 -186 -50 -159 -51 -179 -48 -1305 4 -1154 1 -1091 65 -1225
33 -69 185 -224 263 -268 l55 -32 1054 0 c1043 0 1056 0 1133 21 43 12 93 31
111 43 42 28 74 88 82 150 3 28 8 63 11 79 l6 27 239 0 239 0 0 -168 c0 -137
-4 -180 -20 -241 -50 -178 -144 -283 -343 -377 -136 -64 -190 -72 -570 -84
-438 -13 -1891 -13 -2017 0 -246 26 -424 114 -611 300 -70 70 -103 112 -126
160 -41 85 -78 200 -103 319 -19 91 -21 146 -26 1086 -7 1068 0 1379 35 1540
49 230 151 427 295 570 110 109 288 188 516 230 95 17 1947 21 2109 5z m910
-1403 l23 -22 -5 -224 c-5 -201 -7 -225 -24 -242 -18 -18 -56 -19 -1015 -21
-548 -2 -1000 0 -1003 4 -13 13 15 100 61 196 96 199 265 311 499 330 50 4
394 5 765 4 l675 -4 24 -21z m-2 -829 c23 -21 23 -24 23 -254 l0 -233 -27 -19
c-27 -19 -56 -19 -1365 -14 -1069 4 -1338 7 -1338 17 0 28 50 157 83 217 74
131 165 206 305 252 l77 25 915 11 c503 6 935 12 960 14 25 1 112 3 194 4 141
2 151 1 173 -20z"/>
</g>
</svg>
